HIERARCHY
ROOT root
{
	OFFSET 0.000000 0.000000 0.000000
	CHANNELS 6 Xposition Yposition Zposition Zrotation Yrotation Xrotation
	JOINT lhip
	{
		OFFSET 0.058581 -0.082280 -0.017664
		CHANNELS 3 Zrotation Yrotation Xrotation
		JOINT lknee
		{
			OFFSET 0.043451 -0.386469 0.008037
			CHANNELS 3 Zrotation Yrotation Xrotation
			JOINT lankle
			{
				OFFSET -0.014790 -0.426874 -0.037428
				CHANNELS 3 Zrotation Yrotation Xrotation
				JOINT ltoe
				{
					OFFSET 0.041054 -0.060286 0.122042
					CHANNELS 3 Zrotation Yrotation Xrotation
					End Site
					{
						OFFSET 0.000000 0.000000 0.000000
					}
				}
			}
		}
	}
	JOINT rhip
	{
		OFFSET -0.060310 -0.090513 -0.013543
		CHANNELS 3 Zrotation Yrotation Xrotation
		JOINT rknee
		{
			OFFSET -0.043257 -0.383688 -0.004843
			CHANNELS 3 Zrotation Yrotation Xrotation
			JOINT rankle
			{
				OFFSET 0.019056 -0.420046 -0.034562
				CHANNELS 3 Zrotation Yrotation Xrotation
				JOINT rtoe
				{
					OFFSET -0.034840 -0.062106 0.130323
					CHANNELS 3 Zrotation Yrotation Xrotation
					End Site
					{
						OFFSET 0.000000 0.000000 0.000000
					}
				}
			}
		}
	}
	JOINT lowerback
	{
		OFFSET 0.004439 0.124404 -0.038385
		CHANNELS 3 Zrotation Yrotation Xrotation
		JOINT upperback
		{
			OFFSET 0.004488 0.137956 0.026820
			CHANNELS 3 Zrotation Yrotation Xrotation
			JOINT chest
			{
				OFFSET -0.002265 0.056032 0.002855
				CHANNELS 3 Zrotation Yrotation Xrotation
				JOINT lowerneck
				{
					OFFSET -0.013390 0.211636 -0.033468
					CHANNELS 3 Zrotation Yrotation Xrotation
					JOINT upperneck
					{
						OFFSET 0.010113 0.088937 0.050410
						CHANNELS 3 Zrotation Yrotation Xrotation
						End Site
						{
							OFFSET 0.000000 0.000000 0.000000
						}
					}
				}
				JOINT lclavicle
				{
					OFFSET 0.071702 0.114000 -0.018898
					CHANNELS 3 Zrotation Yrotation Xrotation
					JOINT lshoulder
					{
						OFFSET 0.122921 0.045205 -0.019046
						CHANNELS 3 Zrotation Yrotation Xrotation
						JOINT lelbow
						{
							OFFSET 0.255332 -0.015649 -0.022946
							CHANNELS 3 Zrotation Yrotation Xrotation
							JOINT lwrist
							{
								OFFSET 0.265709 0.012698 -0.007375
								CHANNELS 3 Zrotation Yrotation Xrotation
								End Site
								{
									OFFSET 0.000000 0.000000 0.000000
								}
							}
						}
					}
				}
				JOINT rclavicle
				{
					OFFSET -0.082954 0.112472 -0.023707
					CHANNELS 3 Zrotation Yrotation Xrotation
					JOINT rshoulder
					{
						OFFSET -0.113228 0.046853 -0.008472
						CHANNELS 3 Zrotation Yrotation Xrotation
						JOINT relbow
						{
							OFFSET -0.260127 -0.014369 -0.031269
							CHANNELS 3 Zrotation Yrotation Xrotation
							JOINT rwrist
							{
								OFFSET -0.269108 0.006794 -0.006027
								CHANNELS 3 Zrotation Yrotation Xrotation
								End Site
								{
									OFFSET 0.000000 0.000000 0.000000
								}
							}
						}
					}
				}
			}
		}
	}
}
MOTION
Frames: 17
Frame Time: 0.033333
-0.682128 0.247317 0.989626 91.414993 0.082513 85.852373 -1.962953 1.181312 5.346091 -1.219168 -8.008030 2.467575 4.230183 9.349547 -12.426277 0.000000 -0.000000 0.000000 1.864298 -1.905074 -1.223050 -0.410517 -1.253498 15.123327 0.792537 -9.535447 -15.374323 0.000000 -0.000000 0.000000 0.862486 0.486367 7.691103 0.640777 -0.291121 -2.590117 0.050672 -0.641913 2.337337 1.802512 4.612770 -7.624211 -2.927524 -1.205575 9.220494 -28.286702 6.298747 -0.571619 -58.602341 -5.984452 9.206719 10.520271 -26.088620 6.334274 -4.285016 -2.405447 -4.469354 29.039565 1.358445 0.352020 56.615386 6.229092 14.918604 -10.907616 18.789310 -5.083301 6.622692 1.440383 -6.039744 
-0.682044 0.246995 0.989321 91.516407 0.070057 86.066898 -1.969987 0.905006 5.119190 -1.274646 -8.048578 2.447346 4.106638 9.598995 -12.425205 0.000000 -0.000000 0.000000 1.863906 -1.609762 -1.395867 -0.314450 -1.304208 15.078131 0.993298 -9.866773 -15.432646 0.000000 -0.000000 0.000000 0.857163 0.368633 7.390238 0.635652 -0.157887 -2.558858 0.040324 -0.611323 2.484949 1.868989 4.676247 -7.820310 -2.992943 -1.249769 9.510030 -28.284400 6.357536 -0.527467 -58.717897 -6.188383 9.401712 10.552235 -25.951203 6.417158 -4.379291 -2.412637 -4.447690 28.880395 1.186015 0.156180 56.990806 6.183152 15.172029 -10.982187 18.647280 -5.099608 6.995000 1.395933 -6.338096 
-0.681694 0.246672 0.989278 91.588492 0.049627 86.086442 -1.965874 0.923991 5.082446 -1.294949 -8.111949 2.455254 4.079179 9.563941 -12.371284 0.000000 -0.000000 0.000000 1.861508 -1.638295 -1.399771 -0.322046 -1.365990 15.051309 0.979812 -9.897487 -15.454153 0.000000 -0.000000 0.000000 0.824844 0.359195 7.372175 0.671541 -0.189270 -2.581867 0.074200 -0.632321 2.537490 1.805608 4.674711 -7.755980 -3.038646 -1.298446 9.575895 -28.325145 6.408672 -0.487431 -58.845221 -6.140978 9.424387 10.617588 -25.979885 6.574582 -4.396895 -2.466182 -4.559268 28.901604 1.052346 0.175363 56.988492 6.210380 15.159509 -10.868958 18.604987 -4.957538 6.964958 1.426269 -6.369402 
-0.681075 0.245916 0.989239 91.468505 0.085639 86.054645 -1.864900 0.965822 5.156063 -1.321485 -8.049445 2.473821 4.073598 9.561799 -12.445403 0.000000 -0.000000 0.000000 1.967352 -1.629698 -1.274967 -0.345347 -1.251602 14.945976 0.932544 -9.893724 -15.416276 0.000000 -0.000000 0.000000 0.790163 0.396446 7.215400 0.731407 -0.183919 -2.346074 0.131531 -0.629003 2.601213 1.879996 4.749841 -7.661770 -3.080306 -1.192358 9.502929 -28.302924 6.350071 -0.484999 -58.920708 -6.121578 9.412909 10.621967 -25.939337 6.561114 -4.500277 -2.399215 -4.593677 28.884364 1.155864 0.282093 57.035106 6.295141 15.121185 -10.874620 18.491239 -5.047397 6.886196 1.289774 -6.471533 
-0.681158 0.245546 0.989334 91.398464 0.029078 86.064016 -1.905518 0.902631 5.114916 -1.344507 -7.981323 2.546809 4.097382 9.583140 -12.490685 0.000000 -0.000000 0.000000 1.944563 -1.552390 -1.333379 -0.365459 -1.242736 15.026707 0.976086 -9.881869 -15.476669 0.000000 -0.000000 0.000000 0.697309 0.399621 7.331254 0.723977 -0.158543 -2.343032 0.139352 -0.549282 2.568529 1.909719 4.764346 -7.844210 -3.037723 -1.240101 9.629104 -28.302555 6.335898 -0.509554 -58.883684 -6.158487 9.426628 10.582077 -25.878934 6.422391 -4.465082 -2.381352 -4.522553 28.955637 1.085117 0.265910 57.071320 6.248953 15.190842 -10.915669 18.639610 -5.058396 7.061259 1.244376 -6.371155 
-0.680999 0.245219 0.989239 91.339421 0.030962 86.127916 -1.882642 0.876427 5.052380 -1.365385 -7.920256 2.545145 4.152241 9.667586 -12.533161 0.000000 -0.000000 0.000000 1.961091 -1.534849 -1.412422 -0.323090 -1.180552 15.047053 0.916173 -9.945467 -15.531090 0.000000 -0.000000 0.000000 0.725631 0.363783 7.302216 0.745493 -0.191757 -2.344054 0.116146 -0.548817 2.600946 1.868131 4.849853 -7.781785 -3.045650 -1.232189 9.841046 -28.358526 6.354264 -0.401723 -58.833306 -6.111276 9.445132 10.682207 -25.959932 6.377937 -4.438388 -2.355903 -4.623784 29.065337 1.094555 0.323120 56.984102 6.283172 15.256329 -10.869092 18.706156 -4.971468 7.036115 1.205559 -6.392191 
-0.680904 0.244800 0.989172 91.315602 0.050138 86.201320 -1.831379 0.873490 4.975687 -1.371022 -7.913433 2.578825 4.132236 9.628888 -12.535328 0.000000 -0.000000 0.000000 2.018075 -1.533718 -1.486075 -0.321304 -1.158307 15.024314 0.881816 -9.961724 -15.534585 0.000000 -0.000000 0.000000 0.746060 0.388126 7.347854 0.773333 -0.211292 -2.359911 0.151253 -0.603074 2.598482 1.806377 4.835668 -7.801984 -3.140472 -1.227141 9.814123 -28.394150 6.373181 -0.467758 -58.846541 -6.128291 9.400782 10.640636 -25.779204 6.438719 -4.417060 -2.343310 -4.632864 29.038054 1.042768 0.317600 56.990168 6.251725 15.284251 -10.854943 18.844793 -4.864394 6.967460 1.261129 -6.393026 
-0.680497 0.244494 0.989235 91.208211 0.012314 86.190864 -1.865574 0.907290 5.050914 -1.337627 -7.894742 2.501372 4.092630 9.689907 -12.540622 0.000000 -0.000000 0.000000 1.984109 -1.521901 -1.428399 -0.308381 -1.131430 14.976559 0.932473 -9.919116 -15.500340 0.000000 -0.000000 0.000000 0.739818 0.404725 7.331617 0.754352 -0.216348 -2.294872 0.142749 -0.595775 2.633958 1.843479 4.866386 -7.694131 -3.090695 -1.249858 9.807326 -28.368810 6.415646 -0.466060 -58.805940 -6.101342 9.366388 10.605262 -25.800155 6.554530 -4.423136 -2.226254 -4.590986 29.152602 0.980795 0.353341 56.908608 6.270397 15.196889 -10.871226 18.856985 -4.955768 6.946743 1.433705 -6.404223 
-0.680430 0.243996 0.989286 91.157950 0.011390 86.238430 -1.858115 0.828986 4.974494 -1.328019 -7.814232 2.552080 4.110090 9.781895 -12.561090 0.000000 -0.000000 0.000000 2.021242 -1.500093 -1.501125 -0.305589 -1.034165 14.983807 0.954508 -9.954579 -15.532957 0.000000 -0.000000 0.000000 0.705845 0.408356 7.318156 0.813319 -0.264817 -2.237932 0.185630 -0.646793 2.734757 1.812726 4.916991 -7.796336 -3.122169 -1.266066 9.897032 -28.397910 6.364594 -0.450152 -58.810545 -6.152618 9.390014 10.705478 -25.738019 6.434375 -4.338788 -2.358534 -4.668921 29.159432 1.014780 0.318293 56.827440 6.350693 15.236182 -10.900549 18.925140 -4.959404 6.937372 1.482709 -6.448538 
-0.680052 0.243490 0.989271 91.248588 0.002530 86.256233 -1.818574 0.828708 4.975000 -1.328394 -7.837709 2.560359 4.042738 9.665623 -12.593800 0.000000 -0.000000 0.000000 2.037307 -1.561769 -1.490212 -0.293623 -1.032972 14.992308 0.928971 -9.964992 -15.601220 0.000000 -0.000000 0.000000 0.706839 0.328885 7.424800 0.828706 -0.326272 -2.259309 0.190800 -0.713351 2.706889 1.829725 4.920466 -7.799181 -3.192097 -1.278588 10.103515 -28.378807 6.337698 -0.325063 -58.773088 -6.127032 9.388985 10.764865 -25.818738 6.252241 -4.270940 -2.465621 -4.642663 29.172372 1.040174 0.308529 56.770301 6.338550 15.282552 -10.905095 18.863329 -5.005218 6.828981 1.516577 -6.352613 
-0.679908 0.243072 0.989259 91.120386 -0.023776 86.380964 -1.848047 0.848002 4.894804 -1.275029 -7.861774 2.483986 4.063058 9.738423 -12.558088 0.000000 -0.000000 0.000000 2.035412 -1.533426 -1.710351 -0.276352 -1.008435 15.106279 0.937021 -9.956303 -15.595423 0.000000 -0.000000 0.000000 0.697283 0.326767 7.428630 0.842106 -0.275889 -2.340495 0.162818 -0.707940 2.719306 1.778644 5.057239 -7.898023 -3.127975 -1.316321 10.387291 -28.393465 6.412961 -0.405539 -58.663561 -6.110550 9.412757 10.672249 -25.902236 6.333188 -4.275668 -2.368389 -4.581325 29.257261 1.017193 0.372907 56.640875 6.400455 15.265001 -10.890223 18.818575 -5.038058 6.849548 1.478564 -6.226357 
-0.679627 0.242588 0.989280 91.138545 -0.030792 86.374955 -1.841868 0.864934 4.966042 -1.225284 -7.921807 2.373021 3.945843 9.761412 -12.536018 0.000000 -0.000000 0.000000 2.071641 -1.405392 -1.606484 -0.314852 -1.116223 15.020788 0.936837 -9.931866 -15.630851 0.000000 -0.000000 0.000000 0.710886 0.277882 7.519957 0.816764 -0.261907 -2.282721 0.170458 -0.704865 2.774049 1.875333 5.057517 -7.818794 -3.263403 -1.254957 10.223924 -28.356285 6.424853 -0.546309 -58.621119 -6.172901 9.437956 10.514043 -25.898805 6.444099 -4.227926 -2.396834 -4.495013 29.188363 0.962907 0.192276 56.689194 6.470546 15.262006 -10.824513 18.712025 -5.093531 6.876314 1.484891 -6.283057 
-0.679308 0.241789 0.989301 91.163702 -0.007991 86.384181 -1.770960 0.843089 4.939158 -1.239462 -7.885152 2.450738 4.007401 9.759519 -12.608197 0.000000 -0.000000 0.000000 2.167078 -1.435356 -1.547614 -0.320004 -1.086278 14.913822 0.856281 -9.986533 -15.595385 0.000000 -0.000000 0.000000 0.679238 0.292534 7.625262 0.853173 -0.267088 -2.238961 0.182043 -0.736880 2.726151 1.852510 5.139512 -7.932538 -3.144521 -1.253171 10.385336 -28.286601 6.370982 -0.445348 -58.644028 -6.239289 9.431602 10.579379 -25.988421 6.361404 -4.199656 -2.490076 -4.587542 29.180397 1.070993 0.223585 56.669966 6.347929 15.312312 -10.893463 18.802588 -5.074976 6.882110 1.525042 -6.374061 
-0.679093 0.241077 0.989236 91.143002 -0.027295 86.488739 -1.724764 0.831889 4.868235 -1.283178 -7.836776 2.401096 4.000212 9.757153 -12.498501 0.000000 -0.000000 0.000000 2.183799 -1.349404 -1.651541 -0.283695 -1.125033 14.912755 0.799996 -9.998190 -15.571371 0.000000 -0.000000 0.000000 0.655812 0.252307 7.602209 0.858002 -0.300435 -2.183392 0.193515 -0.701877 2.741776 1.879968 5.103733 -7.805282 -3.147645 -1.201680 10.095307 -28.274541 6.353030 -0.476886 -58.627338 -6.317828 9.419541 10.589443 -25.965643 6.339415 -4.219400 -2.426030 -4.656556 29.189618 1.062906 0.226610 56.621543 6.381088 15.330919 -10.931123 18.890003 -4.976792 6.839706 1.392575 -6.312797 
-0.678749 0.240206 0.989271 91.131700 -0.082706 86.497010 -1.713688 0.764907 4.926453 -1.308270 -7.794332 2.348788 3.940353 9.755762 -12.529732 0.000000 -0.000000 0.000000 2.171592 -1.303555 -1.608332 -0.278166 -1.214855 14.844727 0.851622 -10.015153 -15.617948 0.000000 -0.000000 0.000000 0.532629 0.268217 7.638661 0.832615 -0.290564 -2.115076 0.242804 -0.663835 2.765380 1.896512 5.347145 -7.880183 -3.005866 -1.095554 10.164164 -28.209654 6.329770 -0.472835 -58.642981 -6.339337 9.456283 10.589647 -26.122457 6.391154 -4.219704 -2.577354 -4.702173 29.258425 1.033412 0.193715 56.553061 6.493011 15.291347 -10.766634 18.626080 -5.023777 6.866071 1.428009 -6.423486 
-0.678424 0.239314 0.989266 91.144099 -0.079109 86.600467 -1.661199 0.777404 4.766369 -1.295411 -7.763418 2.485273 3.908641 9.724717 -12.629943 0.000000 -0.000000 0.000000 2.217918 -1.376436 -1.677829 -0.255605 -1.161700 14.833059 0.834933 -9.940457 -15.657278 0.000000 -0.000000 0.000000 0.553247 0.324878 7.751858 0.832364 -0.284680 -2.232186 0.236823 -0.738103 2.787712 1.932899 5.210643 -7.854349 -3.153463 -1.193089 10.145379 -28.183174 6.335675 -0.550733 -58.646491 -6.369332 9.481950 10.559938 -26.093420 6.482773 -4.334968 -2.597110 -4.685057 29.214651 1.069699 0.130184 56.655861 6.477200 15.267193 -10.849646 18.480824 -5.067519 6.848173 1.490227 -6.397831 
-0.677785 0.238333 0.989106 90.970681 -0.110038 86.621720 -1.641551 0.760183 4.846743 -1.274198 -7.719344 2.435823 4.037322 9.825157 -12.729322 0.000000 -0.000000 0.000000 2.239320 -1.308411 -1.710492 -0.209560 -1.151934 14.929749 0.760261 -9.885418 -15.719362 0.000000 -0.000000 0.000000 0.471441 0.330875 7.767049 0.821419 -0.187913 -2.152134 0.270427 -0.701943 2.802685 1.882070 5.360275 -7.969046 -3.107966 -1.092773 10.216638 -28.208828 6.321940 -0.462395 -58.607295 -6.434913 9.430505 10.631720 -26.218275 6.223737 -4.221972 -2.632339 -4.591555 29.228898 1.096388 0.156985 56.652070 6.482450 15.360623 -10.949451 18.652422 -4.952600 6.915187 1.451584 -6.109931 
